<?xml version="1.0" encoding="UTF-8"?>
<svg id="_レイヤー_1" data-name="レイヤー 1" xmlns="http://www.w3.org/2000/svg" xmlns:xlink="http://www.w3.org/1999/xlink" viewBox="0 0 450 450">
  <defs>
    <style>
      .cls-1 {
        fill: none;
        stroke-width: 5px;
      }

      .cls-1, .cls-2 {
        stroke: #fbfbfb;
        stroke-miterlimit: 10;
      }

      .cls-3 {
        fill: url(#_名称未設定グラデーション_6);
      }

      .cls-2 {
        fill: url(#_名称未設定グラデーション_105-2);
        stroke-width: 6px;
      }

      .cls-4 {
        fill: #b7b3fe;
      }

      .cls-5 {
        fill: url(#_名称未設定グラデーション_105);
      }

      .cls-6 {
        fill: #fbfbfb;
      }
    </style>
    <linearGradient id="_名称未設定グラデーション_6" data-name="名称未設定グラデーション 6" x1="47.96" y1="306.69" x2="429.77" y2="306.69" gradientTransform="translate(15.88 -111.91) rotate(7.67) scale(1.05 .96)" gradientUnits="userSpaceOnUse">
      <stop offset="0" stop-color="#5dc8f9"/>
      <stop offset=".09" stop-color="#66c5f9"/>
      <stop offset=".24" stop-color="#7fbffa"/>
      <stop offset=".43" stop-color="#a8b6fd"/>
      <stop offset=".49" stop-color="#b7b3fe"/>
      <stop offset="1" stop-color="#fab1f4"/>
    </linearGradient>
    <linearGradient id="_名称未設定グラデーション_105" data-name="名称未設定グラデーション 105" x1="269.48" y1="269.03" x2="360.21" y2="269.03" gradientTransform="translate(97.51 -60.83) rotate(7.67)" gradientUnits="userSpaceOnUse">
      <stop offset="0" stop-color="#ffb1f3"/>
      <stop offset=".5" stop-color="#b7b3fe"/>
      <stop offset="1" stop-color="#5dc8f9"/>
    </linearGradient>
    <linearGradient id="_名称未設定グラデーション_105-2" data-name="名称未設定グラデーション 105" x1="267.84" y1="387.05" x2="347.92" y2="387.05" gradientTransform="translate(697.16 28.8) rotate(82.33)" xlink:href="#_名称未設定グラデーション_105"/>
  </defs>
  <g>
    <path class="cls-6" d="M398.21,375.22c-31.33,19.41-65.83,32.52-104.35,23.13-26.9-6.55-50.59-22.31-73.17-36.95-50-32.42-106.23-76.06-170.63-64.95-10.28,2-42.66,7.58-36.34-13.29,9.73-72.25,19.46-144.49,29.19-216.74.46-3.39,4.35-8.76,8.64-11.65,32.32-20.07,68.09-33.18,107.77-22.34,30.92,8.45,58.04,28.44,84.01,45.55,57.31,37.74,121.86,79.08,189.37,41.11,4.27-2.74,7.43-2.62,6.97.78-10.94,81.24-21.88,162.48-32.82,243.72-.46,3.39-4.35,8.76-8.64,11.65Z"/>
    <path class="cls-3" d="M410.8,150.44c-9.35,69.42-18.7,138.84-28.05,208.26-.56,4.16-3.42,7.7-7.55,9.4-29.28,12.09-59.13,15.89-90.88,4.64-24.89-8.82-47.2-24.33-68.82-38.52-47.65-31.28-101.44-70.12-162.56-59.23-7.63,1.88-13.29-.64-12.43-7.06l26.48-196.63c.56-4.15,3.41-7.7,7.53-9.4,28.09-11.59,56.77-15.66,87.28-5.79,28.68,9.28,54.02,27.54,78.57,43.72,50.12,33.04,107.53,71.64,170.41,50.61M432.71,119.08c-67.51,37.98-132.06-3.37-189.37-41.11-25.97-17.1-53.09-37.1-84.01-45.55-39.68-10.84-75.92-5.46-108.24,14.6-4.3,2.89-7.72,16-8.17,19.39-9.7,71.99-19.39,143.98-29.09,215.97-.07.51-.18,1.02-.32,1.52-5.31,19.98,26.4,14.51,36.56,12.54,64.39-11.11,120.63,32.54,170.63,64.95,22.58,14.64,46.27,30.39,73.17,36.95,38.52,9.39,73.02-3.72,104.35-23.13,4.3-2.89,8.19-8.26,8.64-11.65,10.94-81.24,21.88-162.48,32.82-243.72.46-3.39-2.69-3.51-6.97-.78h0Z"/>
  </g>
  <g>
    <g>
      <g>
        <path class="cls-5" d="M364.23,412.04c-3.98,0-8.22-.3-12.6-.89-28.15-3.79-43.55-16.55-41.18-34.13.18-1.33.48-2.69.88-4.06l35.33-262.32c-.03-1.42.04-2.81.22-4.15,1.96-14.56,15.13-22.91,36.14-22.91,3.98,0,8.22.3,12.6.89,12.42,1.67,22.75,5.24,29.88,10.3,8.66,6.15,12.57,14.39,11.3,23.82-.18,1.33-.48,2.7-.88,4.06l-35.33,262.32c.03,1.43-.04,2.82-.22,4.15-1.96,14.56-15.13,22.91-36.14,22.91h0Z"/>
        <path class="cls-4" d="M383.03,88.09c3.83,0,7.86.29,12,.85,22.37,3.01,39.53,12.66,37.32,29.07-.17,1.27-.46,2.5-.84,3.7l-35.43,263.05c.05,1.26,0,2.52-.17,3.79-1.8,13.37-14.82,19.01-31.68,19.01-3.83,0-7.86-.29-12-.85-22.37-3.01-39.53-12.66-37.32-29.07.17-1.27.46-2.5.84-3.7l35.43-263.04c-.05-1.26,0-2.52.17-3.79,1.8-13.37,14.82-19.01,31.68-19.01M383.03,79.09c-10.39,0-19.08,1.89-25.83,5.61-8.42,4.64-13.52,11.97-14.77,21.2-.19,1.45-.28,2.95-.27,4.49l-35.24,261.65c-.42,1.48-.73,2.95-.93,4.4-1.49,11.03,3.18,21.01,13.15,28.09,7.72,5.49,18.75,9.33,31.89,11.1,4.58.62,9.02.93,13.2.93,10.39,0,19.08-1.89,25.83-5.61,8.42-4.64,13.52-11.97,14.77-21.2.19-1.45.28-2.95.27-4.49l35.24-261.65c.42-1.48.73-2.95.93-4.4,1.49-11.03-3.18-21.01-13.15-28.09-7.72-5.49-18.75-9.33-31.89-11.1-4.58-.62-9.02-.93-13.2-.93h0Z"/>
        <path class="cls-1" d="M431.51,121.7c.38-1.2.66-2.43.84-3.7,2.21-16.4-14.95-26.05-37.32-29.07-22.37-3.01-41.47,1.76-43.68,18.16-.17,1.27-.22,2.53-.17,3.79l-35.43,263.05c-.38,1.2-.66,2.43-.84,3.7-2.21,16.4,14.95,26.05,37.32,29.07,22.37,3.01,41.47-1.76,43.68-18.16.17-1.27.22-2.53.17-3.79l35.43-263.05Z"/>
      </g>
      <ellipse class="cls-2" cx="354.66" cy="385.58" rx="20.86" ry="40.3" transform="translate(-74.81 685.6) rotate(-82.33)"/>
    </g>
    <path class="cls-6" d="M407.79,123.85c-.59,1-1.65,2.81-2.4,4.09-.54.92-1.45,1.58-2.51,1.79l-4.64.95c-.98.2-1.78.95-1.95,1.94,0,.01,0,.03,0,.04-.16.98.35,1.96,1.21,2.46,1,.59,2.81,1.65,4.09,2.4.92.54,1.58,1.45,1.79,2.51l.95,4.64c.2.98.95,1.78,1.94,1.95.01,0,.03,0,.04,0,.98.16,1.96-.36,2.46-1.22l2.4-4.08c.54-.92,1.45-1.58,2.51-1.79l4.64-.95c.98-.2,1.78-.95,1.95-1.94,0-.01,0-.03,0-.04.16-.98-.36-1.96-1.22-2.46l-4.08-2.4c-.92-.54-1.58-1.45-1.79-2.51-.3-1.45-.72-3.51-.95-4.64-.2-.98-.95-1.77-1.94-1.95-.01,0-.03,0-.04,0-.98-.16-1.96.35-2.46,1.21Z"/>
    <rect class="cls-6" x="396.07" y="154.13" width="7.83" height="79.18" rx="3" ry="3" transform="translate(770.54 439.1) rotate(-172.33)"/>
    <circle class="cls-6" cx="393" cy="250" r="5"/>
  </g>
</svg>