<svg width="1574" height="2494" viewBox="0 0 1574 2494" fill="none" xmlns="http://www.w3.org/2000/svg">
<g filter="url(#filter0_d_327_185)">
<circle cx="1374" cy="892" r="5" fill="#231816"/>
<circle cx="1062" cy="1030" r="5" fill="#231816"/>
<path d="M1437.94 2316.09C1439.71 2312.17 1445.29 2312.17 1447.06 2316.09L1451.52 2325.98C1452.02 2327.09 1452.91 2327.98 1454.02 2328.48L1463.91 2332.94C1467.83 2334.71 1467.83 2340.29 1463.91 2342.06L1454.02 2346.52C1452.91 2347.02 1452.02 2347.91 1451.52 2349.02L1447.06 2358.91C1445.29 2362.83 1439.71 2362.83 1437.94 2358.91L1433.48 2349.02C1432.98 2347.91 1432.09 2347.02 1430.98 2346.52L1421.09 2342.06C1417.17 2340.29 1417.17 2334.71 1421.09 2332.94L1430.98 2328.48C1432.09 2327.98 1432.98 2327.09 1433.48 2325.98L1437.94 2316.09Z" fill="#231816"/>
<path d="M30.9432 1510.09C32.7148 1506.17 38.2852 1506.17 40.0568 1510.09L44.5231 1519.98C45.0241 1521.09 45.9125 1521.98 47.0218 1522.48L56.9107 1526.94C60.8333 1528.71 60.8333 1534.29 56.9107 1536.06L47.0218 1540.52C45.9125 1541.02 45.0241 1541.91 44.5231 1543.02L40.0568 1552.91C38.2852 1556.83 32.7148 1556.83 30.9432 1552.91L26.4769 1543.02C25.9759 1541.91 25.0875 1541.02 23.9782 1540.52L14.0893 1536.06C10.1667 1534.29 10.1667 1528.71 14.0893 1526.94L23.9782 1522.48C25.0875 1521.98 25.9759 1521.09 26.4769 1519.98L30.9432 1510.09Z" fill="#231816"/>
<path d="M1436.94 1202.09C1438.71 1198.17 1444.29 1198.17 1446.06 1202.09L1450.52 1211.98C1451.02 1213.09 1451.91 1213.98 1453.02 1214.48L1462.91 1218.94C1466.83 1220.71 1466.83 1226.29 1462.91 1228.06L1453.02 1232.52C1451.91 1233.02 1451.02 1233.91 1450.52 1235.02L1446.06 1244.91C1444.29 1248.83 1438.71 1248.83 1436.94 1244.91L1432.48 1235.02C1431.98 1233.91 1431.09 1233.02 1429.98 1232.52L1420.09 1228.06C1416.17 1226.29 1416.17 1220.71 1420.09 1218.94L1429.98 1214.48C1431.09 1213.98 1431.98 1213.09 1432.48 1211.98L1436.94 1202.09Z" fill="#231816"/>
<path d="M1213.94 629.089C1215.71 625.167 1221.29 625.167 1223.06 629.089L1227.52 638.978C1228.02 640.087 1228.91 640.976 1230.02 641.477L1239.91 645.943C1243.83 647.715 1243.83 653.285 1239.91 655.057L1230.02 659.523C1228.91 660.024 1228.02 660.913 1227.52 662.022L1223.06 671.911C1221.29 675.833 1215.71 675.833 1213.94 671.911L1209.48 662.022C1208.98 660.913 1208.09 660.024 1206.98 659.523L1197.09 655.057C1193.17 653.285 1193.17 647.715 1197.09 645.943L1206.98 641.477C1208.09 640.976 1208.98 640.087 1209.48 638.978L1213.94 629.089Z" fill="#231816"/>
<path d="M1510.44 379.089C1512.21 375.167 1517.79 375.167 1519.56 379.089L1531.33 405.167C1531.84 406.276 1532.72 407.164 1533.83 407.665L1559.91 419.443C1563.83 421.215 1563.83 426.785 1559.91 428.557L1533.83 440.335C1532.72 440.836 1531.84 441.724 1531.33 442.833L1519.56 468.911C1517.79 472.833 1512.21 472.833 1510.44 468.911L1498.67 442.833C1498.16 441.724 1497.28 440.836 1496.17 440.335L1470.09 428.557C1466.17 426.785 1466.17 421.215 1470.09 419.443L1496.17 407.665C1497.28 407.164 1498.16 406.276 1498.67 405.167L1510.44 379.089Z" fill="#231816"/>
<path d="M1103.94 10.0893C1105.71 6.16671 1111.29 6.16671 1113.06 10.0893L1132.15 52.3552C1132.65 53.4645 1133.54 54.3529 1134.64 54.854L1176.91 73.9432C1180.83 75.7148 1180.83 81.2852 1176.91 83.0568L1134.64 102.146C1133.54 102.647 1132.65 103.535 1132.15 104.645L1113.06 146.911C1111.29 150.833 1105.71 150.833 1103.94 146.911L1084.85 104.645C1084.35 103.535 1083.46 102.647 1082.36 102.146L1040.09 83.0568C1036.17 81.2852 1036.17 75.7148 1040.09 73.9432L1082.36 54.854C1083.46 54.3529 1084.35 53.4645 1084.85 52.3552L1103.94 10.0893Z" fill="#231816"/>
</g>
<defs>
<filter id="filter0_d_327_185" x="0" y="0" width="1574" height="3843" filterUnits="userSpaceOnUse" color-interpolation-filters="sRGB">
<feFlood flood-opacity="0" result="BackgroundImageFix"/>
<feColorMatrix in="SourceAlpha" type="matrix" values="0 0 0 0 0 0 0 0 0 0 0 0 0 0 0 0 0 0 127 0" result="hardAlpha"/>
<feOffset dy="4"/>
<feGaussianBlur stdDeviation="2"/>
<feComposite in2="hardAlpha" operator="out"/>
<feColorMatrix type="matrix" values="0 0 0 0 0 0 0 0 0 0 0 0 0 0 0 0 0 0 0.25 0"/>
<feBlend mode="normal" in2="BackgroundImageFix" result="effect1_dropShadow_327_185"/>
<feBlend mode="normal" in="SourceGraphic" in2="effect1_dropShadow_327_185" result="shape"/>
</filter>
</defs>
</svg>
